<svg xmlns="http://www.w3.org/2000/svg" version="1.1" xmlnsXlink="http://www.w3.org/1999/xlink" xmlnssvgjs="http://svgjs.com/svgjs"  viewBox="0 0 512 512" style="enable-background:new 0 0 512 512" xml:space="preserve"><g><path d="M264.687 412.562a10.025 10.025 0 0 0-7.067-2.929 10.03 10.03 0 0 0-7.067 2.929 10.014 10.014 0 0 0-2.929 7.067 10.03 10.03 0 0 0 2.929 7.067 10.076 10.076 0 0 0 7.067 2.929 10.09 10.09 0 0 0 7.067-2.929 10.072 10.072 0 0 0 2.929-7.067c0-2.639-1.07-5.208-2.929-7.067zM275.292 248.162c-3.302-4.424-9.565-5.335-13.99-2.034a8.95 8.95 0 0 1-5.392 1.784 8.954 8.954 0 0 1-5.352-1.757c-4.441-3.279-10.7-2.336-13.979 2.105s-2.336 10.701 2.105 13.978a28.798 28.798 0 0 0 17.225 5.666c6.305 0 12.303-1.99 17.347-5.753a9.994 9.994 0 0 0 2.036-13.989zM213.447 109.601a10.012 10.012 0 0 0-7.067-2.929 10.03 10.03 0 0 0-7.067 2.929 10.054 10.054 0 0 0-2.929 7.067c0 2.629 1.07 5.208 2.929 7.067a10.072 10.072 0 0 0 7.067 2.929c2.639 0 5.208-1.07 7.067-2.929 1.869-1.869 2.929-4.438 2.929-7.067s-1.06-5.208-2.929-7.067z"  data-original="#000000"></path><path d="M501.854 491.931h-61.976v-36.449c0-41.225-26.015-78.43-64.736-92.581l-67.791-24.774c-2.983-1.113-4.91-3.454-4.91-5.964v-28.159c0-.787-.1-1.547-.272-2.282l30.195-17.314c.182-.104.361-.215.537-.33 13.083-8.641 21.674-24.006 22.981-41.103.02-.253.029-.508.029-.762v-37.171c0-.334-.018-.665-.05-.99a36.633 36.633 0 0 0 15.532-9.254l4.379-4.378c21.424-21.424 21.424-56.283 0-77.708l-67.49-67.49c-5.117-19.796-19.666-35.382-39.146-41.829-23.356-7.73-48.672-1.723-66.068 15.673l-60.605 60.605c-34.697 34.698-34.697 91.156 0 125.854l13.528 13.528v23.161c0 .254.01.509.029.762 1.313 17.167 9.843 32.532 22.82 41.103.179.118.362.23.548.337l30.318 17.332a9.993 9.993 0 0 0-.266 2.257v28.159c0 2.51-1.928 4.851-4.848 5.94L136.755 362.9c-38.718 14.151-64.732 51.357-64.732 92.58v36.452H10.047c-5.521 0-9.996 4.476-9.996 9.996s4.475 9.996 9.996 9.996h491.807c5.521 0 9.996-4.476 9.996-9.996s-4.475-9.997-9.996-9.997zM292.665 102.579c8.085-8.085 13.522-18.019 16.01-28.689l52.96 52.959c13.63 13.63 13.63 35.806.001 49.435l-4.379 4.378c-6.582 6.584-17.293 6.583-23.877 0l-59.4-59.399 18.685-18.684zm-126.41 98.137c-.09-.002-.178-.014-.269-.014-.024 0-.046.003-.07.004l-9.316-9.317c-26.902-26.902-26.902-70.677 0-97.58l60.605-60.604c8.553-8.553 19.876-13.121 31.511-13.121 3.753 0 7.537.484 11.272 1.453 3.395 13.592-.503 27.89-10.488 37.876l-25.441 25.441c-3.904 3.904-3.904 10.233 0 14.137a9.964 9.964 0 0 0 7.068 2.928 9.963 9.963 0 0 0 7.068-2.928l25.441-25.441c10.577-10.578 16.602-24.373 17.447-38.741a39.868 39.868 0 0 1 8.05 16.226c3.218 13.566-.747 27.55-10.605 37.408L166.255 200.716zm23.357 66.516c-7.639-5.172-12.71-14.63-13.63-25.42v-22.55l83.862-83.862 59.4 59.4a36.636 36.636 0 0 0 16.709 9.574c-.015.223-.034.444-.034.67v36.768c-.908 10.571-6.164 20.258-13.796 25.425l-53.668 30.773a9.206 9.206 0 0 0-.537.331c-7.492 4.949-16.439 4.95-23.935-.001-.179-.118-.362-.23-.548-.337l-53.823-30.771zm230.273 224.7h-41.983V446.116c0-20.118-16.368-36.486-36.486-36.486h-46.315c-5.521 0-9.996 4.476-9.996 9.996s4.475 9.996 9.996 9.996h46.315c9.094 0 16.494 7.399 16.494 16.494v45.815H153.99v-45.815c0-9.094 7.399-16.494 16.494-16.494h46.149c5.521 0 9.996-4.476 9.996-9.996s-4.475-9.996-9.996-9.996h-46.149c-20.118 0-36.486 16.368-36.486 36.486v45.815H92.015v-36.452c0-32.862 20.738-62.521 51.603-73.802l67.901-24.819c10.882-4.061 17.913-13.755 17.913-24.694v-19.138l3.82 2.184c7.016 4.557 14.857 6.835 22.699 6.835 7.844 0 15.688-2.279 22.705-6.839l3.793-2.175v19.133c0 10.942 7.032 20.635 17.977 24.718l67.853 24.798c30.867 11.28 51.606 40.939 51.606 73.803v36.449zM32.563 287.866l-7.909-9.93c-6.175-7.752-6.185-18.588-.022-26.351l8.013-10.095c3.433-4.324 2.709-10.612-1.615-14.043-4.324-3.432-10.613-2.709-14.044 1.615l-8.013 10.095c-11.98 15.093-11.963 36.163.043 51.236l7.909 9.929c6.175 7.752 6.185 18.589.023 26.351-3.433 4.323-2.709 10.612 1.615 14.044a9.954 9.954 0 0 0 6.208 2.166 9.977 9.977 0 0 0 7.836-3.781c11.981-15.093 11.963-36.162-.044-51.236z"  data-original="#000000"></path><path d="m104.903 248.194-7.909-9.93c-6.175-7.752-6.184-18.589-.022-26.351l8.013-10.095c3.433-4.324 2.709-10.612-1.615-14.044-4.323-3.433-10.612-2.709-14.044 1.615l-8.013 10.095c-11.98 15.093-11.962 36.162.043 51.235l7.909 9.929c6.175 7.753 6.184 18.589.022 26.351-3.433 4.323-2.709 10.612 1.615 14.044a9.954 9.954 0 0 0 6.208 2.166 9.977 9.977 0 0 0 7.836-3.781c11.98-15.092 11.962-36.16-.043-51.234zM430.645 287.866l-7.909-9.93c-6.175-7.752-6.185-18.588-.022-26.351l8.013-10.095c3.433-4.324 2.709-10.612-1.615-14.044-4.323-3.432-10.612-2.709-14.044 1.615l-8.013 10.095c-11.98 15.093-11.962 36.162.043 51.235l7.909 9.93c6.175 7.753 6.184 18.59.022 26.352-3.433 4.323-2.709 10.612 1.615 14.044a9.954 9.954 0 0 0 6.208 2.166 9.977 9.977 0 0 0 7.836-3.781c11.979-15.093 11.962-36.162-.043-51.236zM502.985 248.194l-7.91-9.931c-6.175-7.752-6.184-18.588-.022-26.351l8.013-10.095c3.433-4.324 2.709-10.612-1.615-14.044-4.323-3.433-10.612-2.709-14.044 1.615l-8.013 10.095c-11.979 15.094-11.961 36.163.043 51.235l7.91 9.93c6.175 7.752 6.184 18.589.022 26.351-3.433 4.324-2.709 10.612 1.615 14.044a9.956 9.956 0 0 0 6.208 2.166 9.977 9.977 0 0 0 7.836-3.781c11.979-15.093 11.961-36.161-.043-51.234z"  data-original="#000000"></path></g></svg>