<svg xmlns="http://www.w3.org/2000/svg" version="1.1" xmlnsXlink="http://www.w3.org/1999/xlink" xmlnssvgjs="http://svgjs.com/svgjs"  viewBox="0 0 682.667 682.667" style="enable-background:new 0 0 512 512" xml:space="preserve" class=""><g><defs><clipPath id="a" clipPathUnits="userSpaceOnUse"><path d="M0 512h512V0H0Z"  data-original="#000000" class=""></path></clipPath></defs><path d="m0 0 100.321-120.989h44.866l-32.263 24.197-69.065 94.02" style="stroke-linecap: round; stroke-linejoin: round; stroke-miterlimit: 10; stroke-dasharray: none; stroke-opacity: 1;" transform="matrix(1.33333 0 0 -1.33333 139.055 450.219)"  stroke-width="15px" stroke-linecap="round" stroke-linejoin="round" stroke-miterlimit="10" stroke-dasharray="none" stroke-opacity="" data-original="#000000" class=""></path><g clip-path="url(#a)" transform="matrix(1.33333 0 0 -1.33333 0 682.667)"><path d="M0 0h-48.396l-80.66-25.649c4.286-1.698 8.576-3.391 11.817-6.115 7.17-6.022 10.258-18.011 18.409-22.728 8.078-4.674 19.997-1.387 28.882-4.622 8.729-3.178 15.734-13.386 25.093-15.026 9.103-1.594 19.163 5.579 28.723 5.579 9.557 0 19.616-7.174 28.716-5.58 9.358 1.639 16.364 11.847 25.093 15.024 8.883 3.234 20.802-.054 28.878 4.619 6.319 3.656 9.612 11.655 14.105 17.883l-48.376 21.96" style="stroke-linecap: round; stroke-linejoin: round; stroke-miterlimit: 10; stroke-dasharray: none; stroke-opacity: 1;" transform="translate(136.556 246.93)" fill="none" stroke="#000000" stroke-width="15px" stroke-linecap="round" stroke-linejoin="round" stroke-miterlimit="10" stroke-dasharray="none" stroke-opacity="" data-original="#000000" class=""></path><path d="m0 0-19.863-27.808a8.068 8.068 0 0 1-.651-8.296l13.96-27.919h24.199L4.537-34.784 32.012-2.269" style="stroke-linecap: round; stroke-linejoin: round; stroke-miterlimit: 10; stroke-dasharray: none; stroke-opacity: 1;" transform="translate(118.911 117.37)" fill="none" stroke="#000000" stroke-width="15px" stroke-linecap="round" stroke-linejoin="round" stroke-miterlimit="10" stroke-dasharray="none" stroke-opacity="" data-original="#000000" class=""></path><path d="m0 0 8.066 48.396" style="stroke-linecap: round; stroke-linejoin: round; stroke-miterlimit: 10; stroke-dasharray: none; stroke-opacity: 1;" transform="translate(88.16 246.93)" fill="none" stroke="#000000" stroke-width="15px" stroke-linecap="round" stroke-linejoin="round" stroke-miterlimit="10" stroke-dasharray="none" stroke-opacity="" data-original="#000000" class=""></path><path d="m0 0 24.198 48.396" style="stroke-linecap: round; stroke-linejoin: round; stroke-miterlimit: 10; stroke-dasharray: none; stroke-opacity: 1;" transform="translate(136.556 246.93)" fill="none" stroke="#000000" stroke-width="15px" stroke-linecap="round" stroke-linejoin="round" stroke-miterlimit="10" stroke-dasharray="none" stroke-opacity="" data-original="#000000" class=""></path><path d="M0 0c0-13.364-10.834-24.198-24.198-24.198S-48.396-13.364-48.396 0s10.834 24.198 24.198 24.198S0 13.364 0 0Z" style="stroke-linecap: round; stroke-linejoin: round; stroke-miterlimit: 10; stroke-dasharray: none; stroke-opacity: 1;" transform="translate(144.622 367.92)" fill="none" stroke="#000000" stroke-width="15px" stroke-linecap="round" stroke-linejoin="round" stroke-miterlimit="10" stroke-dasharray="none" stroke-opacity="" data-original="#000000" class=""></path><path d="M0 0c0-8.909-7.222-16.132-16.132-16.132-8.909 0-16.132 7.223-16.132 16.132 0 8.91 7.223 16.132 16.132 16.132C-7.222 16.132 0 8.91 0 0Z" style="stroke-linecap: round; stroke-linejoin: round; stroke-miterlimit: 10; stroke-dasharray: none; stroke-opacity: 1;" transform="translate(104.291 392.117)" fill="none" stroke="#000000" stroke-width="15px" stroke-linecap="round" stroke-linejoin="round" stroke-miterlimit="10" stroke-dasharray="none" stroke-opacity="" data-original="#000000" class=""></path><path d="M0 0v-24.198" style="stroke-linecap: round; stroke-linejoin: round; stroke-miterlimit: 10; stroke-dasharray: none; stroke-opacity: 1;" transform="translate(217.215 319.523)" fill="none" stroke="#000000" stroke-width="15px" stroke-linecap="round" stroke-linejoin="round" stroke-miterlimit="10" stroke-dasharray="none" stroke-opacity="" data-original="#000000" class=""></path><path d="m0 0-64.528-27.655H-229.88c-6.682 0-12.099-5.417-12.099-12.098 0-6.683 5.417-12.1 12.099-12.1h173.418l48.396 16.132 40.329-64.528h56.462" style="stroke-linecap: round; stroke-linejoin: round; stroke-miterlimit: 10; stroke-dasharray: none; stroke-opacity: 1;" transform="translate(330.14 347.178)" fill="none" stroke="#000000" stroke-width="15px" stroke-linecap="round" stroke-linejoin="round" stroke-miterlimit="10" stroke-dasharray="none" stroke-opacity="" data-original="#000000" class=""></path><path d="m0 0-25.754-36.055a24.198 24.198 0 0 1-1.553-25.653l41.135-75.413-24.198-24.197h56.462v32.263l-40.33 80.66L52.915-1.242a24.195 24.195 0 0 1 6.55 22.181L38.026 120.99l47.311 27.035a40.334 40.334 0 0 1 14.573 14.267l38.184 63.64a11.922 11.922 0 0 1-1.793 14.564c-5.071 5.071-13.438 4.55-17.841-1.111l-48.17-61.933-72.595-31.112" style="stroke-linecap: round; stroke-linejoin: round; stroke-miterlimit: 10; stroke-dasharray: none; stroke-opacity: 1;" transform="translate(364.707 214.665)" fill="none" stroke="#000000" stroke-width="15px" stroke-linecap="round" stroke-linejoin="round" stroke-miterlimit="10" stroke-dasharray="none" stroke-opacity="" data-original="#000000" class=""></path><path d="m0 0 32.264 8.066" style="stroke-linecap: round; stroke-linejoin: round; stroke-miterlimit: 10; stroke-dasharray: none; stroke-opacity: 1;" transform="translate(378.535 77.544)" fill="none" stroke="#000000" stroke-width="15px" stroke-linecap="round" stroke-linejoin="round" stroke-miterlimit="10" stroke-dasharray="none" stroke-opacity="" data-original="#000000" class=""></path><path d="m0 0-80.66-64.528-64.527-104.857" style="stroke-linecap: round; stroke-linejoin: round; stroke-miterlimit: 10; stroke-dasharray: none; stroke-opacity: 1;" transform="translate(362.402 246.93)" fill="none" stroke="#000000" stroke-width="15px" stroke-linecap="round" stroke-linejoin="round" stroke-miterlimit="10" stroke-dasharray="none" stroke-opacity="" data-original="#000000" class=""></path><path d="m0 0 64.528 88.726" style="stroke-linecap: round; stroke-linejoin: round; stroke-miterlimit: 10; stroke-dasharray: none; stroke-opacity: 1;" transform="translate(241.413 61.413)" fill="none" stroke="#000000" stroke-width="15px" stroke-linecap="round" stroke-linejoin="round" stroke-miterlimit="10" stroke-dasharray="none" stroke-opacity="" data-original="#000000" class=""></path><path d="M0 0c0-13.364-10.833-24.198-24.198-24.198-13.364 0-24.198 10.834-24.198 24.198s10.834 24.198 24.198 24.198C-10.833 24.198 0 13.364 0 0Z" style="stroke-linecap: round; stroke-linejoin: round; stroke-miterlimit: 10; stroke-dasharray: none; stroke-opacity: 1;" transform="translate(346.27 392.117)" fill="none" stroke="#000000" stroke-width="15px" stroke-linecap="round" stroke-linejoin="round" stroke-miterlimit="10" stroke-dasharray="none" stroke-opacity="" data-original="#000000" class=""></path><path d="m0 0 17.476-13.443" style="stroke-linecap: round; stroke-linejoin: round; stroke-miterlimit: 10; stroke-dasharray: none; stroke-opacity: 1;" transform="translate(469.554 431.97)"  class=""></path></g></g></svg>