<svg xmlns="http://www.w3.org/2000/svg" version="1.1" xmlnsXlink="http://www.w3.org/1999/xlink" xmlnssvgjs="http://svgjs.com/svgjs"  viewBox="0 0 512.001 512.001" style="enable-background:new 0 0 512 512" xml:space="preserve"><g><path d="M347.53 127.843a7.593 7.593 0 0 0 1.52.152 8.01 8.01 0 0 0 7.856-6.496 221.107 221.107 0 0 1 14.592-46.857l27.84-63.441c1.776-4.04-.064-8.76-4.112-10.544-4.032-1.736-8.76.08-10.536 4.112l-27.84 63.449a236.784 236.784 0 0 0-15.656 50.257c-.84 4.336 2 8.536 6.336 9.368zM140.511 74.642a221.158 221.158 0 0 1 14.592 46.865 7.997 7.997 0 0 0 9.376 6.344 8.003 8.003 0 0 0 6.336-9.368 237.457 237.457 0 0 0-15.656-50.265l-27.84-63.441c-1.776-4.032-6.48-5.856-10.536-4.112a8.002 8.002 0 0 0-4.112 10.544l27.84 63.433zM488.004 151.996h-96.002v-8c0-4.424-3.584-8-8-8H127.999c-4.416 0-8 3.576-8 8v8H23.997c-4.416 0-8 3.576-8 8v64.001c0 4.424 3.584 8 8 8h104.002c4.424 0 8-3.576 8-8v-8H155.4a215.6 215.6 0 0 1-10.876 36.12 7.963 7.963 0 0 0-.721 1.792 216.043 216.043 0 0 1-2.405 5.665c-19.44 44.201-24.76 92.297-15.4 139.114l21.44 106.882a7.992 7.992 0 0 0 7.832 6.432c.52 0 1.056-.048 1.584-.16a8.004 8.004 0 0 0 6.272-9.416l-21.44-106.882c-7.148-35.712-5.092-72.239 5.845-106.915L248 363.998v140.003c0 4.424 3.584 8 8 8 4.424 0 8-3.584 8-8V363.998l100.465-75.367c10.939 34.681 12.988 71.207 5.848 106.912l-21.44 106.882c-.864 4.328 1.936 8.552 6.272 9.416.536.112 1.064.16 1.584.16 3.736 0 7.072-2.632 7.824-6.432l21.44-106.882c9.368-46.817 4.04-94.921-15.408-139.138a216.662 216.662 0 0 1-2.379-5.602 7.969 7.969 0 0 0-.751-1.865 215.356 215.356 0 0 1-10.864-36.086h19.41v8c0 4.424 3.584 8 8 8h104.002c4.424 0 8-3.584 8-8v-64.001a7.996 7.996 0 0 0-7.999-7.999zm-456.007 16h24v16c0 4.424 3.584 8 8 8 4.424 0 8-3.584 8-8v-16h16v8c0 4.424 3.584 8 8 8 4.424 0 8-3.584 8-8v-8h16v48.001h-88v-48.001zm224.004 182.011-102.83-77.142a221.978 221.978 0 0 1 2.861-6.827c.301-.678.591-1.36.885-2.04H355.08c.291.672.578 1.346.875 2.016 1 2.273 1.953 4.559 2.873 6.854l-102.827 77.139zm92.852-102.01H163.14a231.545 231.545 0 0 0 8.597-32h168.519a231.448 231.448 0 0 0 8.597 32zm-212.854-48.001v-48.001h16v16c0 4.424 3.584 8 8 8 4.424 0 8-3.584 8-8v-16h16v8c0 4.424 3.584 8 8 8 4.424 0 8-3.584 8-8v-8h16v16c0 4.424 3.584 8 8 8 4.424 0 8-3.584 8-8v-16h16v8c0 4.424 3.584 8 8 8 4.424 0 8-3.584 8-8v-8h16v16c0 4.424 3.584 8 8 8 4.424 0 8-3.584 8-8v-16h16v8c0 4.424 3.584 8 8 8 4.424 0 8-3.584 8-8v-8h16v16c0 4.424 3.584 8 8 8 4.424 0 8-3.584 8-8v-16h16v48.001h-240zm344.005 16.001h-88.001v-48.001h16v8c0 4.424 3.584 8 8 8 4.424 0 8-3.584 8-8v-8h16v16c0 4.424 3.584 8 8 8 4.424 0 8-3.584 8-8v-16h24v48.001z"  data-original="#000000"></path></g></svg>